<?xml version="1.0" encoding="utf-8"?>
<!-- Generator: Adobe Illustrator 23.0.3, SVG Export Plug-In . SVG Version: 6.00 Build 0)  -->
<svg version="1.1" id="Calque_1" xmlns="http://www.w3.org/2000/svg" xmlns:xlink="http://www.w3.org/1999/xlink" x="0px" y="0px"
	 viewBox="0 0 92.8 81" style="enable-background:new 0 0 92.8 81;" xml:space="preserve">
<g>
	<path d="M46.4,75.4c-1.3,0-2.6-0.5-3.6-1.5L7,38.2c-1-1-1-2.6,0-3.5c1-1,2.6-1,3.5,0l35.8,35.8l35.9-35.8c1-1,2.6-1,3.5,0
		c1,1,1,2.6,0,3.5L50,74C49,75,47.7,75.4,46.4,75.4z"/>
	<path d="M46.4,47.1c-1.3,0-2.6-0.5-3.6-1.5L7,9.8c-1-1-1-2.6,0-3.5c1-1,2.6-1,3.5,0l35.8,35.8L82.2,6.3c1-1,2.6-1,3.5,0
		c1,1,1,2.6,0,3.5L50,45.6C49,46.6,47.7,47.1,46.4,47.1z"/>
</g>
</svg>
