<?xml version="1.0" encoding="utf-8"?>
<!-- Generator: Adobe Illustrator 23.0.3, SVG Export Plug-In . SVG Version: 6.00 Build 0)  -->
<svg version="1.1" id="Calque_1" xmlns="http://www.w3.org/2000/svg" xmlns:xlink="http://www.w3.org/1999/xlink" x="0px" y="0px"
	 viewBox="0 0 207.5 39.7" style="enable-background:new 0 0 207.5 39.7;" xml:space="preserve">
<style type="text/css">
	.st0{fill:#1D1D1B;}
</style>
<rect y="0" class="st0" width="8.8" height="39.7"/>
<polygon class="st0" points="43.5,0 43.5,27.7 26.7,0 18.7,0 42.9,39.7 51.8,39.7 51.8,0 "/>
<g>
	<path class="st0" d="M102.6,12.3c-0.5-2.3-1.5-4.4-3-6.4c-1.8-2.5-4.2-4.1-7.2-5c-1.8-0.6-4-0.9-6.6-0.9H67.5v6.9h16.8
		c4,0,6.7,1.1,8.1,3.3s2,5.3,2,9.3c0,2.9-0.4,5.5-1.3,7.6c-1.7,3.9-4.6,5.8-8.8,5.8H67.5v6.9h18.3c6.4,0,11.1-2.5,14.2-7.4
		c2.3-3.7,3.4-8.1,3.4-13.4C103.4,16.8,103.1,14.6,102.6,12.3"/>
</g>
<path class="st0" d="M150,15.4h-29.2v6.9H150V15.4z M120.8,39.7h31.1v-7h-31.1C120.8,32.7,120.8,39.7,120.8,39.7z M120.8,7h31.1V0
	h-31.1C120.8,0,120.8,7,120.8,7z"/>
<polygon class="st0" points="193.7,19.1 206.7,0 196.5,0 188.7,12.9 181.1,0 170.5,0 183.5,19.5 169.9,39.7 180.2,39.7 188.7,26.1 
	196.7,39.7 207.5,39.7 "/>
</svg>
