<?xml version="1.0" encoding="utf-8"?>
<!-- Generator: Adobe Illustrator 23.0.3, SVG Export Plug-In . SVG Version: 6.00 Build 0)  -->
<svg version="1.1" id="Calque_1" xmlns="http://www.w3.org/2000/svg" xmlns:xlink="http://www.w3.org/1999/xlink" x="0px" y="0px"
	 viewBox="0 0 581 57" style="enable-background:new 0 0 581 57;" xml:space="preserve">
<style type="text/css">
	.st0{fill:none;stroke:#000000;stroke-width:2;stroke-miterlimit:10;}
</style>
<g>
	<path d="M10.8,45.5l2.9-2.3V15.4l-2.9-2.4v-0.4h10.7c2.7,0,5,0.4,7,1.2c1.9,0.8,3.4,2,4.5,3.6c1.1,1.6,1.6,3.6,1.6,6
		c0,2.4-0.6,4.4-1.7,6c-1.2,1.6-2.8,2.9-5,3.7c-2.2,0.8-4.8,1.2-7.8,1.2v8.9l4.6,2.3v0.4H10.8V45.5z M20.7,32.2
		c1.3,0,2.5-0.4,3.6-1.1c1.1-0.7,1.9-1.7,2.6-3c0.6-1.3,0.9-2.9,0.9-4.7c0-1.8-0.3-3.3-0.9-4.7c-0.6-1.3-1.5-2.3-2.6-3s-2.3-1-3.6-1
		H20v17.5H20.7z"/>
	<path d="M48.8,44.2c-2.6-1.5-4.6-3.6-6-6.3c-1.4-2.6-2.1-5.6-2.1-8.8c0-3.2,0.7-6.1,2.1-8.8s3.4-4.7,6-6.3c2.6-1.5,5.6-2.3,8.9-2.3
		c3.3,0,6.3,0.8,8.9,2.3c2.6,1.5,4.6,3.6,6,6.3c1.4,2.6,2.1,5.6,2.1,8.8c0,3.2-0.7,6.1-2.1,8.8c-1.4,2.7-3.4,4.7-6,6.3
		c-2.6,1.5-5.5,2.3-8.9,2.3C54.3,46.6,51.4,45.8,48.8,44.2z M67.5,38.4c0.8-1.9,1.2-3.9,1.2-6c0-2.8-0.6-5.6-1.9-8.3
		c-1.3-2.7-3.1-4.9-5.3-6.6c-2.2-1.7-4.7-2.6-7.5-2.6c-0.8,0-1.7,0.1-2.6,0.3c-1.8,1.2-3.1,2.8-4,4.6c-0.9,1.8-1.3,3.9-1.3,6
		c0,2.8,0.7,5.6,2,8.3c1.3,2.7,3.2,4.9,5.5,6.6c2.3,1.7,4.9,2.6,7.7,2.6c0.8,0,1.6-0.1,2.4-0.2C65.5,41.9,66.7,40.3,67.5,38.4z"/>
	<path d="M81,45.5l2.9-2.3V15.4L81,12.9v-0.4h10.5c2.6,0,4.9,0.4,6.9,1.2c2,0.8,3.6,2,4.7,3.4s1.7,3.2,1.7,5.1
		c0,1.6-0.4,3.1-1.1,4.4c-0.7,1.3-1.7,2.4-2.9,3.2c-1.2,0.8-2.5,1.4-3.9,1.7l5.2,3.2l4.1,8.3l2.5,2.3v0.4h-8l-7.2-13.7
		c-1,0.1-2.1,0.1-3.2,0.1v10.8l4.6,2.3v0.4H81V45.5z M90.7,30.2c1.3,0,2.5-0.3,3.6-0.9c1.1-0.6,2-1.5,2.6-2.7s1-2.6,1-4.2
		c0-1.6-0.3-3-1-4.1c-0.6-1.2-1.5-2.1-2.6-2.7c-1.1-0.6-2.3-0.9-3.6-0.9h-0.6v15.5H90.7z"/>
	<path d="M118.4,45.5l2.9-2.3V14.7c-1.6,0.2-3.2,0.7-4.8,1.5c-1.5,0.8-2.9,1.7-4,2.9H112l2.1-6.5h23.3l-2.1,6.5h-0.5
		c-0.8-1-1.8-1.9-3.2-2.7c-1.3-0.8-2.7-1.3-4.1-1.6v28.5l2.9,2.3v0.4h-12V45.5z"/>
	<path d="M143.8,45.5l2.9-2.3V15.4l-2.9-2.4v-0.4h23.1l-2.5,6.6H164l-3.5-4.4H153v14.7l10.7-1.5l-1.4,3.7H153v11.6l4.6,2.3v0.4
		h-13.8V45.5z"/>
	<path d="M179.8,44.2c-2.6-1.5-4.6-3.6-6-6.3c-1.4-2.6-2.1-5.6-2.1-8.8c0-3.2,0.7-6.1,2.1-8.8s3.4-4.7,6-6.3
		c2.6-1.5,5.6-2.3,8.9-2.3c3.3,0,6.3,0.8,8.9,2.3c2.6,1.5,4.6,3.6,6,6.3c1.4,2.6,2.1,5.6,2.1,8.8c0,3.2-0.7,6.1-2.1,8.8
		c-1.4,2.7-3.4,4.7-6,6.3c-2.6,1.5-5.5,2.3-8.9,2.3C185.4,46.6,182.4,45.8,179.8,44.2z M198.6,38.4c0.8-1.9,1.2-3.9,1.2-6
		c0-2.8-0.6-5.6-1.9-8.3c-1.3-2.7-3.1-4.9-5.3-6.6c-2.2-1.7-4.7-2.6-7.5-2.6c-0.8,0-1.7,0.1-2.6,0.3c-1.8,1.2-3.1,2.8-4,4.6
		c-0.9,1.8-1.3,3.9-1.3,6c0,2.8,0.7,5.6,2,8.3c1.3,2.7,3.2,4.9,5.5,6.6c2.3,1.7,4.9,2.6,7.7,2.6c0.8,0,1.6-0.1,2.4-0.2
		C196.5,41.9,197.8,40.3,198.6,38.4z"/>
	<path d="M211.9,45.5l2.9-2.3V15.4l-2.9-2.4v-0.4h13.7v0.4l-4.6,2.4v28.4h8.2l6.6-4.5h0.4l-0.8,6.7h-23.5V45.5z"/>
	<path d="M241.6,45.5l2.9-2.3V15.4l-2.9-2.4v-0.4h12.1v0.4l-2.9,2.4v27.8l2.9,2.3v0.4h-12.1V45.5z"/>
	<path d="M268.4,44.2c-2.6-1.5-4.6-3.6-6-6.3c-1.4-2.6-2.1-5.6-2.1-8.8c0-3.2,0.7-6.1,2.1-8.8s3.4-4.7,6-6.3
		c2.6-1.5,5.6-2.3,8.9-2.3c3.3,0,6.3,0.8,8.9,2.3c2.6,1.5,4.6,3.6,6,6.3c1.4,2.6,2.1,5.6,2.1,8.8c0,3.2-0.7,6.1-2.1,8.8
		c-1.4,2.7-3.4,4.7-6,6.3c-2.6,1.5-5.5,2.3-8.9,2.3C273.9,46.6,270.9,45.8,268.4,44.2z M287.1,38.4c0.8-1.9,1.2-3.9,1.2-6
		c0-2.8-0.6-5.6-1.9-8.3c-1.3-2.7-3.1-4.9-5.3-6.6c-2.2-1.7-4.7-2.6-7.5-2.6c-0.8,0-1.7,0.1-2.6,0.3c-1.8,1.2-3.1,2.8-4,4.6
		c-0.9,1.8-1.3,3.9-1.3,6c0,2.8,0.7,5.6,2,8.3c1.3,2.7,3.2,4.9,5.5,6.6c2.3,1.7,4.9,2.6,7.7,2.6c0.8,0,1.6-0.1,2.4-0.2
		C285,41.9,286.3,40.3,287.1,38.4z"/>
</g>
<line class="st0" x1="328.1" y1="7.3" x2="328.1" y2="49.8"/>
<g>
	<path d="M378.1,18.2v0.6c-0.7,0-1.2,0.1-1.5,0.2s-0.6,0.4-0.7,0.7c-0.1,0.3-0.2,0.9-0.2,1.6V36c0,0.7,0.1,1.2,0.2,1.6
		c0.1,0.4,0.4,0.6,0.7,0.7c0.3,0.1,0.9,0.2,1.5,0.2v0.6c-0.5,0-1-0.1-1.7-0.1s-1.4,0-2.1,0c-0.8,0-1.5,0-2.2,0c-0.7,0-1.2,0-1.6,0.1
		v-0.6c0.7,0,1.2-0.1,1.5-0.2c0.3-0.1,0.6-0.4,0.7-0.7s0.2-0.9,0.2-1.6V19.7l0.1,0.1l-7.3,19.5h-0.5l-7.5-19.2v15.6
		c0,0.7,0.1,1.3,0.2,1.7s0.4,0.7,0.8,0.9s1,0.3,1.7,0.3v0.6c-0.4,0-0.8-0.1-1.4-0.1c-0.6,0-1.1,0-1.6,0c-0.5,0-1,0-1.5,0
		c-0.5,0-0.9,0-1.3,0.1v-0.6c0.7,0,1.2-0.1,1.5-0.3s0.6-0.5,0.7-0.9c0.1-0.4,0.2-1,0.2-1.7V21.3c0-0.7-0.1-1.3-0.2-1.6
		c-0.1-0.3-0.4-0.6-0.7-0.7s-0.9-0.2-1.5-0.2v-0.6c0.3,0,0.8,0,1.3,0.1c0.5,0,1,0,1.5,0c0.4,0,0.9,0,1.3,0c0.5,0,0.9,0,1.2-0.1
		l6.7,17.7l-0.5,0.2l6.7-17.9c0.2,0,0.5,0,0.7,0c0.2,0,0.5,0,0.7,0c0.7,0,1.4,0,2.1,0S377.7,18.2,378.1,18.2z"/>
	<path d="M385.1,39.3c-1.3,0-2.2-0.3-2.8-1c-0.6-0.6-0.9-1.5-0.9-2.6c0-0.8,0.2-1.5,0.6-2.1c0.4-0.5,0.9-1,1.6-1.3
		c0.6-0.3,1.3-0.6,2-0.9s1.4-0.5,2-0.7c0.6-0.2,1.2-0.5,1.6-0.8c0.4-0.3,0.6-0.7,0.6-1.1v-1.8c0-0.8-0.1-1.5-0.4-1.9
		c-0.2-0.4-0.6-0.7-1-0.9s-0.9-0.2-1.4-0.2c-0.5,0-1,0.1-1.6,0.2c-0.6,0.1-1,0.4-1.3,0.9c0.4,0.1,0.7,0.3,1,0.6s0.4,0.7,0.4,1.2
		c0,0.5-0.2,0.9-0.5,1.2c-0.3,0.3-0.7,0.4-1.2,0.4c-0.6,0-1-0.2-1.3-0.5c-0.3-0.4-0.4-0.8-0.4-1.2c0-0.5,0.1-0.9,0.4-1.2
		s0.6-0.6,1-0.9c0.5-0.3,1-0.6,1.8-0.8c0.7-0.2,1.5-0.3,2.4-0.3c0.8,0,1.5,0.1,2.1,0.3c0.6,0.2,1,0.5,1.4,0.8c0.5,0.5,0.8,1.1,1,1.7
		c0.2,0.7,0.2,1.5,0.2,2.4V37c0,0.5,0.1,0.8,0.2,1.1c0.1,0.2,0.4,0.3,0.7,0.3c0.3,0,0.5-0.1,0.7-0.2c0.2-0.1,0.4-0.3,0.6-0.4
		l0.3,0.5c-0.4,0.3-0.8,0.6-1.2,0.8c-0.4,0.2-0.9,0.3-1.5,0.3c-1,0-1.7-0.3-2-0.8s-0.5-1.1-0.5-1.8c-0.6,1-1.3,1.7-2.1,2.1
		S386,39.3,385.1,39.3z M386.4,38.2c0.6,0,1.2-0.2,1.7-0.5c0.6-0.3,1.1-0.9,1.6-1.7v-5.8c-0.3,0.4-0.8,0.8-1.4,1s-1.3,0.5-1.9,0.8
		c-0.7,0.3-1.2,0.7-1.7,1.2c-0.5,0.5-0.7,1.3-0.7,2.2c0,0.9,0.2,1.6,0.7,2S385.7,38.2,386.4,38.2z"/>
	<path d="M406.1,23.5c0.5,0,1,0.1,1.4,0.3c0.4,0.2,0.7,0.5,0.9,0.8c0.2,0.3,0.3,0.7,0.3,1.2c0,0.5-0.2,0.9-0.5,1.3
		c-0.3,0.4-0.7,0.6-1.2,0.6c-0.4,0-0.8-0.1-1.1-0.4c-0.3-0.3-0.5-0.6-0.5-1.1c0-0.4,0.1-0.7,0.3-1c0.2-0.3,0.4-0.5,0.7-0.6
		c-0.1-0.2-0.3-0.3-0.6-0.3c-0.8,0-1.6,0.3-2.2,0.9c-0.6,0.6-1.1,1.4-1.4,2.2c-0.3,0.9-0.5,1.7-0.5,2.4v6.3c0,1,0.3,1.6,0.8,1.9
		s1.3,0.5,2.3,0.5v0.6c-0.5,0-1.1,0-1.9-0.1c-0.8,0-1.7,0-2.6,0c-0.7,0-1.3,0-2,0c-0.7,0-1.2,0.1-1.5,0.1v-0.6
		c0.8,0,1.4-0.1,1.7-0.4c0.3-0.3,0.5-0.9,0.5-1.7v-9.3c0-0.9-0.2-1.5-0.5-2c-0.3-0.4-0.9-0.6-1.8-0.6v-0.6c0.6,0.1,1.2,0.1,1.8,0.1
		c0.6,0,1.1,0,1.6-0.1s1-0.2,1.4-0.3v3.7c0.2-0.6,0.5-1.2,0.9-1.7c0.4-0.6,0.9-1.1,1.5-1.5C404.8,23.7,405.4,23.5,406.1,23.5z"/>
	<path d="M415.9,19v4.9h4.4v0.6h-4.4V36c0,0.9,0.2,1.6,0.5,2c0.3,0.4,0.8,0.6,1.4,0.6c0.6,0,1.1-0.2,1.5-0.7
		c0.4-0.5,0.8-1.3,1.1-2.4l0.6,0.1c-0.2,1.1-0.6,2.1-1.2,2.9c-0.6,0.8-1.5,1.2-2.7,1.2c-0.7,0-1.2-0.1-1.7-0.3
		c-0.4-0.2-0.8-0.4-1.2-0.7c-0.4-0.5-0.7-1-0.9-1.6s-0.3-1.5-0.3-2.5v-9.9h-2.8v-0.6h2.8v-4.5c0.5,0,1-0.1,1.4-0.1
		C415.1,19.2,415.5,19.1,415.9,19z"/>
	<path d="M427.6,23.6v12.8c0,0.8,0.2,1.4,0.5,1.7c0.3,0.3,0.9,0.4,1.7,0.4v0.6c-0.3,0-0.8,0-1.5-0.1c-0.7,0-1.4,0-2.1,0
		c-0.7,0-1.4,0-2,0s-1.2,0.1-1.5,0.1v-0.6c0.8,0,1.4-0.1,1.7-0.4c0.3-0.3,0.5-0.9,0.5-1.7v-9.3c0-0.9-0.2-1.5-0.5-2
		c-0.3-0.4-0.9-0.6-1.8-0.6v-0.6c0.6,0.1,1.2,0.1,1.8,0.1c0.6,0,1.1,0,1.6-0.1S427.1,23.7,427.6,23.6z M426,16.5
		c0.5,0,1,0.2,1.3,0.6c0.4,0.4,0.6,0.8,0.6,1.3c0,0.5-0.2,1-0.6,1.3c-0.4,0.4-0.8,0.6-1.3,0.6s-1-0.2-1.3-0.6
		c-0.4-0.4-0.6-0.8-0.6-1.3c0-0.5,0.2-1,0.6-1.3C425.1,16.7,425.5,16.5,426,16.5z"/>
	<path d="M442.3,23.5c0.8,0,1.4,0.1,1.9,0.3c0.5,0.2,0.9,0.5,1.3,0.8c0.4,0.4,0.6,0.9,0.8,1.5c0.2,0.6,0.2,1.4,0.2,2.4v7.9
		c0,0.8,0.2,1.4,0.5,1.7c0.3,0.3,0.9,0.4,1.7,0.4v0.6c-0.3,0-0.8,0-1.5-0.1s-1.4,0-2,0c-0.7,0-1.3,0-1.9,0c-0.6,0-1.1,0.1-1.4,0.1
		v-0.6c0.7,0,1.2-0.1,1.5-0.4c0.3-0.3,0.4-0.9,0.4-1.7v-8.6c0-0.6,0-1.2-0.1-1.7c-0.1-0.5-0.3-0.9-0.7-1.2c-0.3-0.3-0.9-0.5-1.6-0.5
		c-1.2,0-2.2,0.5-3,1.6c-0.8,1-1.1,2.3-1.1,3.8v6.6c0,0.8,0.1,1.4,0.4,1.7c0.3,0.3,0.8,0.4,1.5,0.4v0.6c-0.3,0-0.8,0-1.4-0.1
		s-1.3,0-1.9,0s-1.3,0-2,0s-1.2,0.1-1.5,0.1v-0.6c0.8,0,1.4-0.1,1.7-0.4c0.3-0.3,0.5-0.9,0.5-1.7v-9.3c0-0.9-0.2-1.5-0.5-2
		c-0.3-0.4-0.9-0.6-1.8-0.6v-0.6c0.6,0.1,1.2,0.1,1.8,0.1c0.6,0,1.1,0,1.6-0.1s1-0.2,1.4-0.3v3.5c0.5-1.3,1.2-2.3,2.1-2.8
		C440.4,23.7,441.3,23.5,442.3,23.5z"/>
	<path d="M466.8,16c0.6,0,1,0.1,1.5,0.2c0.4,0.1,0.8,0.3,1.1,0.6c0.3,0.2,0.5,0.5,0.7,0.8c0.2,0.3,0.2,0.7,0.2,1
		c0,0.5-0.1,0.8-0.4,1.1c-0.3,0.3-0.7,0.4-1.1,0.4c-0.4,0-0.8-0.1-1.1-0.4c-0.3-0.3-0.5-0.7-0.5-1.2c0-0.4,0.1-0.8,0.3-1
		c0.2-0.3,0.5-0.4,0.9-0.5c-0.1-0.2-0.2-0.3-0.5-0.5c-0.2-0.1-0.6-0.2-1-0.2c-0.5,0-0.8,0.1-1.2,0.3c-0.3,0.2-0.6,0.5-0.8,0.8
		c-0.2,0.4-0.4,1-0.4,1.9c-0.1,0.8-0.1,2.1-0.1,3.8v0.8h3.2v0.6h-3.2v11.6c0,1,0.3,1.6,0.8,1.9c0.6,0.3,1.3,0.5,2.3,0.5v0.6
		c-0.5,0-1.1,0-1.9-0.1c-0.8,0-1.7,0-2.6,0c-0.7,0-1.3,0-2,0c-0.7,0-1.2,0.1-1.5,0.1v-0.6c0.8,0,1.4-0.1,1.7-0.4
		c0.3-0.3,0.5-0.9,0.5-1.7V24.5h-2.4v-0.6h2.4c0-1.8,0.1-3.1,0.3-4c0.2-0.9,0.6-1.7,1.2-2.4c0.4-0.5,0.9-0.8,1.5-1.1
		S466.1,16,466.8,16z"/>
	<path d="M479.6,23.5c0.5,0,1,0.1,1.4,0.3c0.4,0.2,0.7,0.5,0.9,0.8c0.2,0.3,0.3,0.7,0.3,1.2c0,0.5-0.2,0.9-0.5,1.3
		c-0.3,0.4-0.7,0.6-1.2,0.6c-0.4,0-0.8-0.1-1.1-0.4c-0.3-0.3-0.5-0.6-0.5-1.1c0-0.4,0.1-0.7,0.3-1c0.2-0.3,0.4-0.5,0.7-0.6
		c-0.1-0.2-0.3-0.3-0.6-0.3c-0.8,0-1.6,0.3-2.2,0.9c-0.6,0.6-1.1,1.4-1.4,2.2c-0.3,0.9-0.5,1.7-0.5,2.4v6.3c0,1,0.3,1.6,0.8,1.9
		s1.3,0.5,2.3,0.5v0.6c-0.5,0-1.1,0-1.9-0.1c-0.8,0-1.7,0-2.6,0c-0.7,0-1.3,0-2,0c-0.7,0-1.2,0.1-1.5,0.1v-0.6
		c0.8,0,1.4-0.1,1.7-0.4c0.3-0.3,0.5-0.9,0.5-1.7v-9.3c0-0.9-0.2-1.5-0.5-2c-0.3-0.4-0.9-0.6-1.8-0.6v-0.6c0.6,0.1,1.2,0.1,1.8,0.1
		c0.6,0,1.1,0,1.6-0.1s1-0.2,1.4-0.3v3.7c0.2-0.6,0.5-1.2,0.9-1.7c0.4-0.6,0.9-1.1,1.5-1.5C478.3,23.7,478.9,23.5,479.6,23.5z"/>
	<path d="M488.6,39.3c-1.3,0-2.2-0.3-2.8-1c-0.6-0.6-0.9-1.5-0.9-2.6c0-0.8,0.2-1.5,0.6-2.1c0.4-0.5,0.9-1,1.6-1.3
		c0.6-0.3,1.3-0.6,2-0.9s1.4-0.5,2-0.7c0.6-0.2,1.2-0.5,1.6-0.8c0.4-0.3,0.6-0.7,0.6-1.1v-1.8c0-0.8-0.1-1.5-0.4-1.9
		c-0.2-0.4-0.6-0.7-1-0.9s-0.9-0.2-1.4-0.2c-0.5,0-1,0.1-1.6,0.2c-0.6,0.1-1,0.4-1.3,0.9c0.4,0.1,0.7,0.3,1,0.6s0.4,0.7,0.4,1.2
		c0,0.5-0.2,0.9-0.5,1.2c-0.3,0.3-0.7,0.4-1.2,0.4c-0.6,0-1-0.2-1.3-0.5c-0.3-0.4-0.4-0.8-0.4-1.2c0-0.5,0.1-0.9,0.4-1.2
		s0.6-0.6,1-0.9c0.5-0.3,1-0.6,1.8-0.8c0.7-0.2,1.5-0.3,2.4-0.3c0.8,0,1.5,0.1,2.1,0.3c0.6,0.2,1,0.5,1.4,0.8c0.5,0.5,0.8,1.1,1,1.7
		c0.2,0.7,0.2,1.5,0.2,2.4V37c0,0.5,0.1,0.8,0.2,1.1c0.1,0.2,0.4,0.3,0.7,0.3c0.3,0,0.5-0.1,0.7-0.2c0.2-0.1,0.4-0.3,0.6-0.4
		l0.3,0.5c-0.4,0.3-0.8,0.6-1.2,0.8c-0.4,0.2-0.9,0.3-1.5,0.3c-1,0-1.7-0.3-2-0.8s-0.5-1.1-0.5-1.8c-0.6,1-1.3,1.7-2.1,2.1
		S489.4,39.3,488.6,39.3z M489.9,38.2c0.6,0,1.2-0.2,1.7-0.5c0.6-0.3,1.1-0.9,1.6-1.7v-5.8c-0.3,0.4-0.8,0.8-1.4,1s-1.3,0.5-1.9,0.8
		c-0.7,0.3-1.2,0.7-1.7,1.2c-0.5,0.5-0.7,1.3-0.7,2.2c0,0.9,0.2,1.6,0.7,2S489.2,38.2,489.9,38.2z"/>
	<path d="M510.3,23.5c0.8,0,1.4,0.1,1.9,0.3c0.5,0.2,0.9,0.5,1.3,0.8c0.4,0.4,0.6,0.9,0.8,1.5c0.2,0.6,0.2,1.4,0.2,2.4v7.9
		c0,0.8,0.2,1.4,0.5,1.7c0.3,0.3,0.9,0.4,1.7,0.4v0.6c-0.3,0-0.8,0-1.5-0.1s-1.4,0-2,0c-0.7,0-1.3,0-1.9,0c-0.6,0-1.1,0.1-1.4,0.1
		v-0.6c0.7,0,1.2-0.1,1.5-0.4c0.3-0.3,0.4-0.9,0.4-1.7v-8.6c0-0.6,0-1.2-0.1-1.7c-0.1-0.5-0.3-0.9-0.7-1.2c-0.3-0.3-0.9-0.5-1.6-0.5
		c-1.2,0-2.2,0.5-3,1.6c-0.8,1-1.1,2.3-1.1,3.8v6.6c0,0.8,0.1,1.4,0.4,1.7c0.3,0.3,0.8,0.4,1.5,0.4v0.6c-0.3,0-0.8,0-1.4-0.1
		s-1.3,0-1.9,0s-1.3,0-2,0s-1.2,0.1-1.5,0.1v-0.6c0.8,0,1.4-0.1,1.7-0.4c0.3-0.3,0.5-0.9,0.5-1.7v-9.3c0-0.9-0.2-1.5-0.5-2
		c-0.3-0.4-0.9-0.6-1.8-0.6v-0.6c0.6,0.1,1.2,0.1,1.8,0.1c0.6,0,1.1,0,1.6-0.1s1-0.2,1.4-0.3v3.5c0.5-1.3,1.2-2.3,2.1-2.8
		C508.4,23.7,509.3,23.5,510.3,23.5z"/>
	<path d="M526.5,23.5c0.6,0,1.2,0.1,1.8,0.2c0.6,0.2,1.1,0.4,1.6,0.7c0.5,0.3,0.8,0.6,1,1c0.2,0.4,0.4,0.8,0.4,1.3
		c0,0.5-0.1,0.9-0.4,1.2c-0.3,0.3-0.7,0.4-1.1,0.4c-0.4,0-0.8-0.1-1.1-0.4c-0.3-0.3-0.5-0.6-0.5-1.1c0-0.5,0.1-0.8,0.4-1.1
		c0.2-0.3,0.5-0.5,0.9-0.5c-0.2-0.4-0.5-0.7-1.1-0.9c-0.5-0.2-1-0.4-1.6-0.4c-0.5,0-1,0.1-1.5,0.4c-0.5,0.2-0.9,0.6-1.4,1.2
		c-0.4,0.5-0.8,1.3-1,2.2s-0.4,2.1-0.4,3.5c0,1.7,0.2,3.1,0.6,4.1c0.4,1,0.9,1.8,1.6,2.2s1.3,0.7,2.1,0.7c0.8,0,1.6-0.2,2.3-0.7
		c0.8-0.5,1.4-1.2,2-2.4l0.6,0.2c-0.2,0.6-0.5,1.3-1,1.9c-0.5,0.6-1,1.2-1.8,1.6c-0.7,0.4-1.6,0.6-2.7,0.6c-1.2,0-2.3-0.3-3.3-0.9
		s-1.8-1.5-2.4-2.7c-0.6-1.2-0.9-2.6-0.9-4.2c0-1.6,0.3-3,0.9-4.3c0.6-1.2,1.4-2.2,2.4-2.9C524,23.8,525.2,23.5,526.5,23.5z
		 M526.1,39l-0.8,2.3c0.3-0.1,0.5-0.1,0.8-0.1c0.3,0,0.6-0.1,0.9-0.1c0.6,0,1,0.1,1.3,0.4s0.5,0.6,0.5,1c0,0.6-0.2,1-0.5,1.3
		c-0.4,0.3-0.8,0.6-1.3,0.7c-0.5,0.1-1,0.2-1.5,0.2c-0.6,0-1,0-1.4-0.1c-0.4-0.1-0.7-0.1-1-0.2l0.1-0.5c0.1,0,0.3,0,0.5,0.1
		c0.2,0,0.4,0,0.7,0c0.6,0,1.2-0.1,1.8-0.3s0.9-0.5,0.9-1.1c0-0.6-0.4-0.8-1.2-0.8c-0.2,0-0.4,0-0.7,0c-0.3,0-0.6,0.1-0.8,0.2l1-3
		H526.1z"/>
	<path d="M541.8,23.5c1.3,0,2.4,0.3,3.4,0.8c1,0.6,1.8,1.4,2.4,2.6c0.6,1.2,0.9,2.7,0.9,4.6c0,1.9-0.3,3.4-0.9,4.6s-1.4,2-2.4,2.6
		c-1,0.6-2.1,0.8-3.4,0.8c-1.2,0-2.4-0.3-3.4-0.8c-1-0.6-1.8-1.4-2.4-2.6s-0.9-2.7-0.9-4.6c0-1.9,0.3-3.4,0.9-4.6
		c0.6-1.2,1.4-2.1,2.4-2.6C539.4,23.7,540.6,23.5,541.8,23.5z M541.8,24.1c-1.1,0-2,0.6-2.8,1.7c-0.7,1.2-1.1,3.1-1.1,5.7
		c0,2.6,0.4,4.5,1.1,5.7c0.7,1.2,1.6,1.7,2.8,1.7s2-0.6,2.8-1.7s1.1-3.1,1.1-5.7c0-2.6-0.4-4.6-1.1-5.7
		C543.9,24.6,542.9,24.1,541.8,24.1z"/>
	<path d="M556.7,23.6v12.8c0,0.8,0.2,1.4,0.5,1.7c0.3,0.3,0.9,0.4,1.7,0.4v0.6c-0.3,0-0.8,0-1.5-0.1c-0.7,0-1.4,0-2.1,0
		c-0.7,0-1.4,0-2,0s-1.2,0.1-1.5,0.1v-0.6c0.8,0,1.4-0.1,1.7-0.4c0.3-0.3,0.5-0.9,0.5-1.7v-9.3c0-0.9-0.2-1.5-0.5-2
		c-0.3-0.4-0.9-0.6-1.8-0.6v-0.6c0.6,0.1,1.2,0.1,1.8,0.1c0.6,0,1.1,0,1.6-0.1S556.3,23.7,556.7,23.6z M555.2,16.5
		c0.5,0,1,0.2,1.3,0.6c0.4,0.4,0.6,0.8,0.6,1.3c0,0.5-0.2,1-0.6,1.3c-0.4,0.4-0.8,0.6-1.3,0.6s-1-0.2-1.3-0.6
		c-0.4-0.4-0.6-0.8-0.6-1.3c0-0.5,0.2-1,0.6-1.3C554.2,16.7,554.7,16.5,555.2,16.5z"/>
	<path d="M566.8,23.5c0.8,0,1.5,0.1,2,0.4c0.6,0.3,1,0.5,1.2,0.7c0.7,0.5,1,0.2,1.2-1.1h0.7c0,0.6-0.1,1.2-0.1,2c0,0.8,0,1.8,0,3.1
		h-0.7c-0.1-0.7-0.3-1.4-0.6-2.1c-0.3-0.7-0.7-1.3-1.3-1.7S568,24,567.1,24c-0.7,0-1.3,0.2-1.7,0.6c-0.5,0.4-0.7,1-0.7,1.7
		c0,0.6,0.2,1.1,0.5,1.5s0.8,0.8,1.4,1.2c0.6,0.4,1.2,0.8,1.9,1.2c1.1,0.7,2.1,1.5,2.9,2.2s1.2,1.7,1.2,3c0,0.9-0.2,1.7-0.7,2.3
		c-0.5,0.6-1.1,1.1-1.9,1.4c-0.8,0.3-1.6,0.5-2.5,0.5c-0.4,0-0.8,0-1.2-0.1s-0.8-0.2-1.1-0.3c-0.2-0.1-0.4-0.2-0.6-0.4
		c-0.2-0.1-0.4-0.3-0.6-0.4c-0.2-0.2-0.4-0.2-0.5,0c-0.2,0.2-0.3,0.5-0.4,1h-0.7c0-0.6,0.1-1.4,0.1-2.3c0-0.9,0-2.1,0-3.6h0.7
		c0.1,1.1,0.3,2.1,0.6,2.9c0.3,0.8,0.7,1.5,1.2,1.9s1.3,0.7,2.3,0.7c0.6,0,1.2-0.2,1.8-0.6c0.6-0.4,0.9-1.1,0.9-2.2
		c0-0.9-0.3-1.6-0.9-2.1c-0.6-0.6-1.4-1.1-2.4-1.7c-0.7-0.5-1.4-0.9-2-1.4c-0.6-0.5-1.1-1-1.5-1.5c-0.4-0.6-0.6-1.3-0.6-2.1
		c0-0.9,0.2-1.6,0.6-2.2c0.4-0.6,0.9-1,1.6-1.2C565.4,23.6,566.1,23.5,566.8,23.5z"/>
</g>
</svg>
